<?xml version="1.0" encoding="UTF-8" standalone="no"?>
<!-- Created with Inkscape (http://www.inkscape.org/) -->

<svg
   width="64"
   height="64"
   viewBox="0 0 16.933333 16.933333"
   version="1.1"
   id="svg1032"
   xml:space="preserve"
   inkscape:version="1.2.1 (9c6d41e410, 2022-07-14, custom)"
   sodipodi:docname="quebec.svg"
   xmlns:inkscape="http://www.inkscape.org/namespaces/inkscape"
   xmlns:sodipodi="http://sodipodi.sourceforge.net/DTD/sodipodi-0.dtd"
   xmlns="http://www.w3.org/2000/svg"
   xmlns:svg="http://www.w3.org/2000/svg"><sodipodi:namedview
     id="namedview1034"
     pagecolor="#ffffff"
     bordercolor="#666666"
     borderopacity="1.0"
     inkscape:showpageshadow="2"
     inkscape:pageopacity="0.0"
     inkscape:pagecheckerboard="0"
     inkscape:deskcolor="#d1d1d1"
     inkscape:document-units="mm"
     showgrid="true"
     inkscape:zoom="6.7277216"
     inkscape:cx="30.322301"
     inkscape:cy="32.328924"
     inkscape:window-width="1910"
     inkscape:window-height="1005"
     inkscape:window-x="0"
     inkscape:window-y="46"
     inkscape:window-maximized="1"
     inkscape:current-layer="layer1"><inkscape:grid
       type="xygrid"
       id="grid1231" /></sodipodi:namedview><defs
     id="defs1029" /><g
     inkscape:label="Layer 1"
     inkscape:groupmode="layer"
     id="layer1"><path
       style="fill:#000000;stroke-width:0.016273"
       d="M 8.5037831,16.712888 C 8.1934524,16.340027 8.0469943,16.038472 7.9446075,15.561557 7.9215515,15.454148 7.9003005,15.358181 7.8973905,15.34829 7.8944905,15.33839 7.8298015,15.32227 7.7536659,15.31248 7.6775269,15.30258 7.5688809,15.27522 7.5122246,15.25146 7.2500347,15.141596 6.9734388,14.862644 6.839009,14.572486 l -0.038523,-0.08314 0.1300626,-0.06954 c 0.3811651,-0.203653 0.6667177,-0.491273 0.8224941,-0.828422 0.068578,-0.148434 0.1320028,-0.382127 0.1461861,-0.538648 l 0.010807,-0.119249 H 6.6628986 5.4157622 v -0.666999 -0.667 l 0.5980366,-0.0045 0.5980365,-0.0045 -0.00481,-0.146457 C 6.5974108,11.150352 6.5071339,10.828535 6.3491,10.524532 6.2436152,10.321619 6.1322619,10.176658 6.0053644,10.077064 5.7998039,9.9157209 5.6290336,9.8578143 5.3587977,9.8578143 c -0.4695325,0 -0.7642919,0.2074547 -0.912624,0.6423117 -0.037625,0.110309 -0.045558,0.165097 -0.051968,0.358926 -0.00834,0.251318 0.018396,0.406606 0.1009416,0.586907 0.047471,0.103692 0.049584,0.102876 -0.1452785,0.05585 C 3.423318,11.278341 2.8049348,10.724027 2.608864,9.9411881 2.4046862,9.125973 2.6733255,8.166712 3.2531224,7.6406302 3.8941279,7.0590173 4.5728292,6.9034212 5.2611617,7.1802882 c 1.1530108,0.46376 1.9223798,1.7537057 2.1304915,3.5720438 0.020399,0.178262 0.056991,0.694235 0.058006,0.818044 2.466e-4,0.02675 0.024488,0.02847 0.3460393,0.02439 l 0.3458036,-0.0045 -0.00372,-0.341737 C 8.1288096,10.415301 8.0432798,9.782156 7.8382008,9.0298157 7.7335492,8.6458937 7.5669222,8.1571107 7.1771543,7.0907222 6.7342387,5.8789099 6.6818989,5.7232686 6.6298301,5.4631289 6.4671379,4.6503069 6.5755955,3.7145186 6.9400376,2.7864819 7.166786,2.2090939 7.4846654,1.6436734 7.8732212,1.1266308 8.1050377,0.81814952 8.6095136,0.22347204 8.6393825,0.22347204 c 0.019275,0 0.4519765,0.50273602 0.6372765,0.74042753 0.3353139,0.43011483 0.5674956,0.79383703 0.78962,1.23698023 0.612049,1.2210598 0.794912,2.3832703 0.538705,3.423847 -0.03064,0.124408 -0.199838,0.6119488 -0.440521,1.2692927 C 9.5229344,8.6461566 9.3705316,9.1398898 9.2484763,9.8615406 9.1755833,10.292525 9.1260041,10.90413 9.1260041,11.37235 v 0.226014 h 0.3485761 0.348576 l 0.00879,-0.101706 c 0.00481,-0.05594 0.012928,-0.193239 0.01796,-0.305117 0.018513,-0.411865 0.09499,-0.938554 0.1961568,-1.3508801 0.359142,-1.4637647 1.166379,-2.4619111 2.220621,-2.7457864 0.133449,-0.035903 0.187981,-0.041614 0.398691,-0.041614 0.211356,0 0.265473,0.00544 0.403474,0.04243 0.486863,0.1294941 0.992632,0.491249 1.267207,0.9063772 0.287684,0.4349473 0.440454,1.0462705 0.391418,1.5662865 -0.07386,0.7831838 -0.483459,1.3741618 -1.188845,1.7152458 -0.22128,0.107001 -0.762721,0.276187 -0.791563,0.247338 -0.0038,-0.0036 0.01033,-0.04334 0.03153,-0.08776 0.07599,-0.159177 0.09748,-0.275344 0.09773,-0.528249 2.46e-4,-0.261209 -0.02029,-0.367802 -0.106604,-0.552917 -0.107393,-0.23033 -0.262021,-0.3720175 -0.492297,-0.4510943 -0.121651,-0.041796 -0.152584,-0.045604 -0.36875,-0.045513 -0.205966,7.26e-5 -0.249347,0.00453 -0.341274,0.037988 -0.298693,0.1075263 -0.549341,0.3757523 -0.719109,0.7695293 -0.111845,0.259424 -0.192645,0.612629 -0.192645,0.842116 v 0.08332 h 0.602286 0.602287 l -0.0043,0.663128 -0.0043,0.663128 -1.24585,0.0045 -1.2458496,0.0045 0.013318,0.126021 c 0.019574,0.185134 0.070826,0.366606 0.1521146,0.538557 0.1671103,0.353496 0.4153575,0.603744 0.810142,0.816694 0.06862,0.03699 0.124772,0.07489 0.124772,0.08423 0,0.03101 -0.100047,0.214926 -0.171557,0.315408 -0.204724,0.287656 -0.5008112,0.470432 -0.8170332,0.50434 -0.074725,0.0082 -0.1017068,0.01741 -0.1017068,0.03536 0,0.05512 -0.087535,0.413832 -0.1386048,0.56795 -0.06739,0.203357 -0.1382993,0.346061 -0.266031,0.535402 -0.1060105,0.157137 -0.2913622,0.383287 -0.3224179,0.393396 -0.010544,0.0036 -0.073229,-0.05875 -0.1392867,-0.13808 z"
       id="path1229" /></g></svg>
